<?xml version="1.0" encoding="utf-8"?>
<!-- Generator: Adobe Illustrator 16.0.0, SVG Export Plug-In . SVG Version: 6.00 Build 0)  -->
<svg version="1.2" baseProfile="tiny"
     id="Layer_1"
     xmlns="http://www.w3.org/2000/svg" x="0px" y="0px" width="456.44px"
     height="155.559px" viewBox="-256.424 -0.052 456.44 155.559" xml:space="preserve">
<g>
	<g transform="translate(1565.7 -1106.8)">
		<g transform="matrix(3.1437 0 0 3.1437 -4835.7 -1027.6)">
			<g transform="matrix(1.25 0 0 -1.25 1102.5 727.74)">
				<path fill="#231F20" d="M0,0v-0.103h0.095c0.021,0,0.039,0.005,0.052,0.013c0.012,0.008,0.019,0.022,0.019,0.039
					s-0.007,0.03-0.019,0.038C0.134-0.004,0.116,0,0.095,0H0z M0.096,0.072c0.049,0,0.087-0.011,0.114-0.033
					c0.027-0.022,0.04-0.052,0.04-0.09c0-0.032-0.01-0.058-0.032-0.079C0.197-0.15,0.167-0.163,0.127-0.168l0.126-0.145H0.155
					L0.038-0.169H0v-0.144h-0.082v0.385H0.096z M0.071-0.446c0.045,0,0.087,0.009,0.125,0.026c0.039,0.017,0.073,0.04,0.102,0.069
					C0.327-0.322,0.35-0.288,0.367-0.248c0.016,0.039,0.025,0.081,0.025,0.126c0,0.045-0.009,0.087-0.025,0.126
					C0.35,0.043,0.327,0.078,0.298,0.107C0.269,0.136,0.235,0.159,0.196,0.176C0.158,0.192,0.116,0.2,0.071,0.2
					s-0.088-0.008-0.127-0.024c-0.04-0.017-0.075-0.04-0.104-0.069c-0.029-0.029-0.052-0.064-0.068-0.103
					c-0.017-0.039-0.025-0.081-0.025-0.126c0-0.045,0.008-0.087,0.025-0.126c0.016-0.04,0.039-0.074,0.068-0.103
					C-0.131-0.38-0.096-0.403-0.056-0.42C-0.017-0.437,0.026-0.446,0.071-0.446 M0.071,0.293c0.059,0,0.113-0.011,0.165-0.033
					C0.287,0.239,0.331,0.209,0.37,0.171C0.408,0.134,0.438,0.09,0.46,0.039c0.022-0.05,0.033-0.104,0.033-0.161
					c0-0.057-0.011-0.111-0.033-0.161c-0.022-0.05-0.052-0.094-0.09-0.132C0.331-0.452,0.287-0.482,0.236-0.504
					C0.184-0.526,0.13-0.537,0.071-0.537c-0.06,0-0.115,0.011-0.167,0.033c-0.052,0.022-0.097,0.052-0.135,0.089
					c-0.038,0.038-0.068,0.082-0.09,0.132c-0.022,0.05-0.033,0.104-0.033,0.161c0,0.057,0.011,0.111,0.033,0.161
					c0.022,0.051,0.052,0.095,0.09,0.132c0.038,0.038,0.083,0.068,0.135,0.089C-0.044,0.282,0.011,0.293,0.071,0.293 M-38.89,1.776
					c0,0.734,0.481,1.337,1.267,1.337c0.751,0,1.258-0.577,1.258-1.337s-0.507-1.337-1.258-1.337
					C-38.409,0.439-38.89,1.042-38.89,1.776 M-35.509,1.776v2.088h-0.908V3.357c-0.288,0.376-0.725,0.612-1.319,0.612
					c-1.171,0-2.089-0.918-2.089-2.193c0-1.276,0.918-2.193,2.089-2.193c0.594,0,1.031,0.236,1.319,0.612v-0.507h0.908V1.776z
					 M-4.825,1.776c0,0.734,0.481,1.337,1.267,1.337c0.752,0,1.258-0.577,1.258-1.337s-0.506-1.337-1.258-1.337
					C-4.344,0.439-4.825,1.042-4.825,1.776 M-1.443,1.776v3.765h-0.909V3.357C-2.64,3.733-3.077,3.969-3.671,3.969
					c-1.171,0-2.089-0.918-2.089-2.193c0-1.276,0.918-2.193,2.089-2.193c0.594,0,1.031,0.236,1.319,0.612v-0.507h0.909V1.776z
					 M-24.238,3.156c0.585,0,0.961-0.367,1.057-1.013h-2.167C-25.251,2.746-24.885,3.156-24.238,3.156 M-24.22,3.969
					c-1.224,0-2.08-0.891-2.08-2.193c0-1.328,0.891-2.193,2.141-2.193c0.629,0,1.205,0.157,1.712,0.585l-0.445,0.673
					c-0.35-0.279-0.796-0.437-1.215-0.437c-0.585,0-1.118,0.271-1.249,1.023h3.101c0.009,0.113,0.018,0.227,0.018,0.349
					C-22.246,3.078-23.05,3.969-24.22,3.969 M-13.256,1.776c0,0.734,0.481,1.337,1.267,1.337c0.751,0,1.258-0.577,1.258-1.337
					s-0.507-1.337-1.258-1.337C-12.775,0.439-13.256,1.042-13.256,1.776 M-9.875,1.776v2.088h-0.908V3.357
					c-0.289,0.376-0.725,0.612-1.319,0.612c-1.171,0-2.089-0.918-2.089-2.193c0-1.276,0.918-2.193,2.089-2.193
					c0.594,0,1.03,0.236,1.319,0.612v-0.507h0.908V1.776z M-18.384,1.776c0-1.267,0.882-2.193,2.228-2.193
					c0.629,0,1.048,0.14,1.502,0.498l-0.436,0.734c-0.341-0.245-0.699-0.376-1.093-0.376c-0.725,0.009-1.258,0.533-1.258,1.337
					c0,0.804,0.533,1.328,1.258,1.337c0.394,0,0.752-0.131,1.093-0.376l0.436,0.734c-0.454,0.358-0.873,0.498-1.502,0.498
					C-17.502,3.969-18.384,3.043-18.384,1.776 M-6.677,3.969c-0.524,0-0.865-0.245-1.101-0.612v0.507h-0.9v-4.176h0.909v2.341
					c0,0.691,0.297,1.075,0.891,1.075c0.184,0,0.376-0.026,0.568-0.105l0.28,0.856C-6.231,3.934-6.493,3.969-6.677,3.969
					 M-31.018,3.532c-0.437,0.288-1.039,0.437-1.703,0.437c-1.058,0-1.739-0.507-1.739-1.337c0-0.681,0.507-1.101,1.441-1.232
					l0.429-0.061c0.498-0.07,0.733-0.201,0.733-0.437c0-0.323-0.332-0.507-0.952-0.507c-0.629,0-1.083,0.201-1.389,0.437
					l-0.428-0.707c0.498-0.367,1.127-0.542,1.808-0.542c1.206,0,1.905,0.568,1.905,1.363c0,0.734-0.55,1.118-1.459,1.249
					L-32.8,2.257c-0.393,0.052-0.708,0.13-0.708,0.41c0,0.306,0.297,0.489,0.795,0.489c0.533,0,1.049-0.201,1.302-0.358
					L-31.018,3.532z M-19.302,3.969c-0.524,0-0.865-0.245-1.1-0.612v0.507h-0.9v-4.176h0.908v2.341c0,0.691,0.297,1.075,0.891,1.075
					c0.184,0,0.376-0.026,0.568-0.105l0.28,0.856C-18.856,3.934-19.118,3.969-19.302,3.969 M-27.051,3.864h-1.485v1.267h-0.918
					V3.864h-0.847v-0.83h0.847V1.129c0-0.969,0.376-1.546,1.45-1.546c0.394,0,0.848,0.122,1.136,0.323l-0.262,0.778
					c-0.271-0.157-0.568-0.236-0.804-0.236c-0.454,0-0.602,0.28-0.602,0.699v1.887h1.485V3.864z M-40.628-0.312v2.621
					c0,0.987-0.629,1.651-1.643,1.66c-0.533,0.009-1.083-0.157-1.468-0.743c-0.288,0.463-0.742,0.743-1.38,0.743
					c-0.446,0-0.882-0.131-1.223-0.62v0.515h-0.909v-4.176h0.917v2.315c0,0.725,0.402,1.11,1.023,1.11
					c0.603,0,0.908-0.393,0.908-1.101v-2.324h0.918v2.315c0,0.725,0.419,1.11,1.022,1.11c0.62,0,0.917-0.393,0.917-1.101v-2.324
					H-40.628z"/>
			</g>
			<g transform="matrix(1.25 0 0 -1.25 1103.2 710.77)">
				<path fill="#F79410" d="M0,0v0.61h-0.159l-0.184-0.419L-0.526,0.61h-0.16V0h0.113v0.46l0.172-0.397h0.117l0.172,0.398V0H0z
					 M-1.009,0v0.506h0.204v0.103h-0.52V0.506h0.204V0H-1.009z"/>
			</g>
			<path fill="#FF5F00" d="M1080.6,714.05h-17.202v-30.915h17.202V714.05z"/>
			<g transform="matrix(1.25 0 0 -1.25 1064.5 698.59)">
				<path fill="#EB001B" d="M0,0c0,5.017,2.349,9.486,6.007,12.366c-2.675,2.106-6.051,3.363-9.72,3.363
					C-12.399,15.729-19.44,8.687-19.44,0s7.041-15.729,15.727-15.729c3.669,0,7.045,1.257,9.72,3.363C2.349-9.486,0-5.017,0,0"/>
			</g>
			<g transform="matrix(1.25 0 0 -1.25 1103.8 698.59)">
				<path fill="#F79E1B" d="M0,0c0-8.687-7.041-15.729-15.727-15.729c-3.669,0-7.045,1.257-9.721,3.363
					C-21.789-9.486-19.44-5.017-19.44,0c0,5.017-2.349,9.486-6.008,12.366c2.676,2.106,6.052,3.363,9.721,3.363
					C-7.041,15.729,0,8.687,0,0"/>
			</g>
		</g>
	</g>
	<g>
		<g>
			<path fill-rule="evenodd" fill="#0522A4" d="M-36.912,19.534c2.086,23.163,4.137,45.936,6.235,69.231
				c-6.044,0-11.5,0.107-16.942-0.135c-0.688-0.029-1.794-1.85-1.861-2.896c-0.458-7.1-0.385-7.104-7.444-7.111
				c-4.497-0.004-8.999,0.121-13.488-0.068c-2.61-0.111-4.358,0.572-4.987,3.252c-1.41,6.012-5.204,7.926-11.171,7.105
				c-3.659-0.502-7.443-0.094-11.819-0.094c2.07-3.967,3.863-7.461,5.709-10.926c9.684-18.179,19.475-36.302,28.983-54.572
				c1.59-3.057,3.379-3.98,6.639-3.858C-50.584,19.705-44.095,19.534-36.912,19.534z M-52.193,31.768
				c-5.286,11.805-10.194,22.766-15.341,34.261c5.372,0,9.98,0.122,14.571-0.111c0.826-0.043,2.284-1.574,2.256-2.377
				C-51.06,53.266-51.629,42.999-52.193,31.768z"/>
			<path fill-rule="evenodd" fill="#FDAB29" d="M-239.339,147.962c4.094-2.027,8.113-4.23,12.297-6.051
				c12.768-5.563,25.451-11.371,38.456-16.322c9.848-3.75,20.077-6.566,30.253-9.371c9.845-2.713,19.779-5.18,29.789-7.186
				c7.631-1.527,15.417-2.762,23.176-3.082c20.055-0.826,40.132-1.172,60.204-1.475c4.314-0.066,8.661,0.754,12.95,1.432
				c0.766,0.121,1.88,1.553,1.885,2.385c0.035,5.742-0.187,11.484-0.313,17.227c-0.05,2.27-0.741,3.398-3.416,2.902
				c-7.196-1.34-14.432-2.477-21.666-3.596c-5.377-0.832-10.759-1.908-16.173-2.182c-14.311-0.725-28.647-1.586-42.961-1.404
				c-11.302,0.145-22.666,1.207-33.853,2.871c-11.318,1.682-22.439,4.67-33.672,6.961c-14.644,2.988-28.694,7.834-42.547,13.324
				c-3.863,1.529-7.686,3.164-11.569,4.641c-0.731,0.279-1.658,0.041-2.494,0.041C-239.107,148.704-239.223,148.333-239.339,147.962
				z"/>
			<path fill-rule="evenodd" fill="#0522A4" d="M-256.425,19.763c10.988,0,21.182,0,31.808,0c0.93,15,1.848,29.827,2.826,45.601
				c1.814-3.709,3.105-6.72,4.707-9.558c6.319-11.194,12.783-22.308,19.069-33.521c1.119-1.997,2.368-2.841,4.685-2.766
				c5.076,0.165,10.161,0.051,15.916,0.051c-3.025,5.407-5.726,10.273-8.463,15.118c-9.456,16.734-19.008,33.416-28.314,50.234
				c-1.704,3.08-3.701,4.191-7.081,3.949c-3.603-0.26-7.244-0.166-10.86-0.016c-2.518,0.105-3.666-0.4-3.97-3.365
				c-1.706-16.616-3.726-33.198-5.609-49.794c-1.086-9.575-3.81-12.646-13.264-14.837
				C-255.264,20.793-255.496,20.478-256.425,19.763z"/>
			<path fill-rule="evenodd" fill="#0522A4" d="M-156.372,83.202c3.096-4.711,5.832-8.875,8.777-13.359
				c1.727,0.962,3.343,1.828,4.927,2.751c4.881,2.846,10.193,4.243,15.772,3.824c2.336-0.176,4.935-1.125,6.784-2.543
				c3.15-2.415,2.948-6.033-0.094-8.623c-1.605-1.366-3.467-2.431-5.218-3.625c-3.091-2.108-6.245-4.131-9.27-6.331
				c-14.981-10.895-7.151-29.159,3.934-34.025c14.054-6.168,27.216-3.609,40.108,4.808c-3.408,4.037-6.583,7.798-9.715,11.509
				c-3.026-1.674-5.75-3.462-8.694-4.743c-3.913-1.703-8.017-2.011-11.927,0.148c-3.842,2.122-4.527,6.04-1.18,8.879
				c3.498,2.968,7.486,5.36,11.272,7.985c4.889,3.39,9.329,7.222,11.417,13.007c3.001,8.311-2.839,20.33-12.375,24.671
				c-11.98,5.453-24.111,3.994-36.072-0.361C-150.708,86.161-153.313,84.657-156.372,83.202z"/>
			<path fill-rule="evenodd" fill="#0522A4" d="M-148.459,19.566c-2.475,8.161-4.756,15.66-7.023,23.163
				c-4.329,14.329-8.687,28.649-12.937,43.002c-0.662,2.236-1.633,3.248-4.132,3.141c-4.826-0.209-9.667-0.063-15.023-0.063
				c2.143-7.209,4.094-13.877,6.108-20.528c4.593-15.162,9.277-30.298,13.768-45.49c0.728-2.462,1.74-3.414,4.366-3.29
				C-158.609,19.727-153.868,19.566-148.459,19.566z"/>
		</g>
	</g>
</g>
</svg>
